PathFileType	4	(X/Y/Z)	s05c0203.trc
DataRate	CameraRate	NumFrames	NumMarkers	Units	OrigDataRate	OrigDataStartFrame	OrigNumFrames
200	200	4	47	mm	200	250	2000
Frame#	Time	racr			lacr			c7			jug			rlel			rdr			llel			ldr			s2			lic			ric			lasi			rasi			rpsi			lpsi			rgt			lgt			rth1			rth2			rth3			rth4			rlfc			rsh1			rsh2			rsh3			rsh4			rlmal			rcal			rtoe			rmt5			lth1			lth2			lth4			lth3			llfc			lmfc			lsh1			lsh2			lsh3			lsh4			llmal			lcal			ltoe			lmt5			SBIKE			LBIKE			RBIKE			
		X1	Y1	Z1	X2	Y2	Z2	X3	Y3	Z3	X4	Y4	Z4	X5	Y5	Z5	X6	Y6	Z6	X7	Y7	Z7	X8	Y8	Z8	X9	Y9	Z9	X10	Y10	Z10	X11	Y11	Z11	X12	Y12	Z12	X13	Y13	Z13	X14	Y14	Z14	X15	Y15	Z15	X16	Y16	Z16	X17	Y17	Z17	X18	Y18	Z18	X19	Y19	Z19	X20	Y20	Z20	X21	Y21	Z21	X22	Y22	Z22	X23	Y23	Z23	X24	Y24	Z24	X25	Y25	Z25	X26	Y26	Z26	X27	Y27	Z27	X28	Y28	Z28	X29	Y29	Z29	X30	Y30	Z30	X31	Y31	Z31	X32	Y32	Z32	X33	Y33	Z33	X34	Y34	Z34	X35	Y35	Z35	X36	Y36	Z36	X37	Y37	Z37	X38	Y38	Z38	X39	Y39	Z39	X40	Y40	Z40	X41	Y41	Z41	X42	Y42	Z42	X43	Y43	Z43	X44	Y44	Z44	X45	Y45	Z45	X46	Y46	Z46	X47	Y47	Z47	
250	1.2500	387.804838	1386.291819	-140.786749	396.018121	1396.615076	-437.106279	362.492295	1473.441274	-293.412745	360.516837	1311.542167	-291.213341	494.011623	1149.588557	-45.107781	683.010724	963.946139	-85.531690	471.702330	1144.604140	-546.088559	681.472592	967.665803	-500.798590	-138.604657	1153.321409	-279.330772	10.334305	1168.697162	-425.486460	13.205851	1195.692687	-146.575182	59.356891	1119.254565	-389.621570	56.129898	1135.626818	-170.486167	-107.940707	1204.195220	-240.365650	-104.708778	1202.138644	-329.538321	-23.172747	1072.498897	-104.246066	-65.134511	1058.408456	-447.328817	83.577647	1030.042462	-86.522355	172.742040	1025.930153	-83.815156	246.331698	976.785501	-84.086815	183.496389	1058.718185	-97.025162	382.390160	910.809871	-109.087473	313.862408	822.386609	-88.563028	297.989084	735.589655	-101.830494	244.372847	668.981087	-107.762901	325.835084	726.657622	-126.593204	192.584177	549.043043	-120.379181	118.460800	519.602149	-166.767902	411.009091	480.400159	-160.207393	308.951707	464.194294	-94.775286	10.610471	937.186189	-471.372797	76.545013	882.330081	-474.580977	107.470865	901.262848	-465.338819	106.160429	796.770795	-476.761772	176.672208	666.895092	-448.496184	172.658514	657.992428	-340.155135	100.641660	562.823444	-467.835971	83.269863	478.106465	-453.900560	23.376724	412.549895	-448.331179	111.977784	467.100965	-430.610118	-23.521581	297.789892	-435.842179	-90.622104	269.689710	-388.897225	193.527366	195.648109	-402.669512	81.144620	190.033125	-462.214962	-187.719191	900.008918	-285.062210	-53.396258	79.157214	-474.716893	-53.440506	79.221253	-77.063192	
251	1.2550	387.806192	1386.317424	-140.759026	396.051381	1396.651220	-437.044962	362.482502	1473.462188	-293.338978	360.524021	1311.554818	-291.166635	494.006509	1149.601994	-45.056672	683.013184	963.957105	-85.568590	471.730869	1144.620792	-546.094491	681.462356	967.673006	-500.687771	-138.607165	1153.295729	-279.364719	10.385610	1168.683809	-425.470255	13.169070	1195.693827	-146.601970	59.375194	1119.252525	-389.598517	56.117776	1135.638390	-170.488158	-107.949164	1204.174130	-240.413615	-104.699829	1202.119435	-329.572161	-23.168925	1072.498861	-104.259120	-65.108410	1058.390186	-447.355704	83.583997	1030.070194	-86.530580	172.749980	1026.000842	-83.804245	246.348570	976.876261	-84.081702	183.491137	1058.802462	-97.021235	382.422269	910.960328	-109.071942	313.877485	822.532307	-88.537312	297.924507	735.734895	-101.807288	244.306642	669.168271	-107.748641	325.779332	726.820332	-126.609059	192.489656	549.256349	-120.400318	118.343879	519.852418	-166.780971	410.855220	480.490246	-160.207468	308.795590	464.336874	-94.792762	10.604747	937.164589	-471.387403	76.523480	882.297586	-474.608090	107.463859	901.202309	-465.338120	106.119513	796.702794	-476.767501	176.603689	666.812605	-448.478383	172.556946	657.915637	-340.145833	100.597737	562.703321	-467.836426	83.287082	477.992362	-453.895327	23.424457	412.372165	-448.320720	111.987191	467.003096	-430.597438	-23.405092	297.591322	-435.823851	-90.466245	269.439645	-388.955420	193.697625	195.554013	-402.690493	81.304212	189.895074	-462.224164	-187.732167	899.892831	-284.775195	-53.404014	79.155424	-474.700223	-53.431376	79.211465	-77.051841	
252	1.2600	387.776121	1386.331562	-140.740736	396.056036	1396.674687	-436.962007	362.462794	1473.482700	-293.308407	360.535289	1311.576828	-291.133378	494.000741	1149.605227	-44.971294	683.010610	963.947201	-85.615221	471.748268	1144.650259	-546.100589	681.459267	967.678808	-500.576721	-138.602483	1153.261089	-279.372426	10.436679	1168.670384	-425.490096	13.125652	1195.675404	-146.591108	59.402272	1119.250262	-389.573694	56.102868	1135.650082	-170.490351	-107.952394	1204.155626	-240.449665	-104.700338	1202.108050	-329.574821	-23.184324	1072.507875	-104.260728	-65.077311	1058.377216	-447.358187	83.616429	1030.117211	-86.539031	172.756741	1026.104351	-83.814862	246.388525	976.959877	-84.071821	183.501620	1058.880287	-97.015730	382.467699	911.083225	-109.064134	313.860781	822.660145	-88.514676	297.879413	735.954330	-101.806190	244.253871	669.348334	-107.742820	325.752929	727.035387	-126.611759	192.367244	549.493703	-120.411306	118.231044	520.100905	-166.805095	410.705216	480.564530	-160.222253	308.640750	464.491064	-94.788938	10.620698	937.140516	-471.394499	76.511167	882.244104	-474.599337	107.448482	901.125830	-465.328229	106.063886	796.646013	-476.768966	176.516238	666.750532	-448.453286	172.454816	657.827077	-340.150663	100.562379	562.575320	-467.837272	83.279358	477.877999	-453.878849	23.454948	412.207009	-448.317803	112.004404	466.911926	-430.613729	-23.320009	297.394552	-435.825824	-90.327356	269.202346	-388.990242	193.844901	195.481039	-402.702300	81.471718	189.727008	-462.214518	-187.705526	899.825635	-284.583602	-53.402642	79.172490	-474.714776	-53.429744	79.196469	-77.067270	
253	1.2650	387.766171	1386.350153	-140.687406	396.071707	1396.700627	-436.896593	362.440007	1473.495597	-293.261621	360.500861	1311.580774	-291.069692	493.993811	1149.600909	-44.874391	682.985387	963.942724	-85.702543	471.769210	1144.668115	-546.107841	681.444853	967.678342	-500.464195	-138.580349	1153.245964	-279.411784	10.442263	1168.670828	-425.493791	13.108141	1195.681180	-146.597998	59.417656	1119.250346	-389.566784	56.087205	1135.654538	-170.465165	-107.988828	1204.121633	-240.484612	-104.692569	1202.074759	-329.592103	-23.170799	1072.521774	-104.272172	-65.054690	1058.353274	-447.369639	83.601646	1030.161298	-86.527371	172.774813	1026.182806	-83.807732	246.397686	977.060453	-84.037389	183.507373	1058.969690	-97.011784	382.506693	911.216841	-109.033105	313.871758	822.785303	-88.516701	297.866381	736.131386	-101.796730	244.211397	669.521221	-107.739968	325.750596	727.162203	-126.587857	192.277849	549.715579	-120.420285	118.096493	520.394203	-166.828235	410.598541	480.688988	-160.168777	308.485592	464.615987	-94.775175	10.621067	937.104759	-471.403750	76.489635	882.197938	-474.601253	107.428664	901.067572	-465.310589	106.021640	796.581699	-476.752459	176.424687	666.666701	-448.435593	172.354834	657.738664	-340.153525	100.525772	562.454269	-467.823706	83.278041	477.746296	-453.887969	23.481287	412.019280	-448.314006	111.991244	466.776386	-430.592057	-23.235815	297.192289	-435.878019	-90.236255	268.984178	-388.967355	194.008625	195.359121	-402.713678	81.632834	189.570751	-462.218892	-187.731163	899.886649	-284.751422	-53.396791	79.156161	-474.709970	-53.435101	79.229119	-77.061356	
